<svg xmlns="http://www.w3.org/2000/svg" xmlns:xlink="http://www.w3.org/1999/xlink" width="40" zoomAndPan="magnify" viewBox="0 0 30 30.000001" height="40" preserveAspectRatio="xMidYMid meet" version="1.0"><defs><clipPath id="dfbe6638ab"><path d="M 0.484375 1.492188 L 28.066406 1.492188 L 28.066406 27.621094 L 0.484375 27.621094 Z M 0.484375 1.492188 " clip-rule="nonzero"/></clipPath></defs><g clip-path="url(#dfbe6638ab)"><path fill="#456896" d="M 23.476562 12.976562 C 23.417969 12.996094 23.359375 13.015625 23.300781 13.035156 C 23.296875 13.035156 23.292969 13.039062 23.292969 13.039062 C 23.234375 13.058594 23.171875 13.074219 23.113281 13.089844 C 23.109375 13.089844 23.101562 13.09375 23.09375 13.09375 C 22.976562 13.125 22.859375 13.152344 22.738281 13.171875 C 22.726562 13.175781 22.71875 13.175781 22.710938 13.179688 C 22.652344 13.1875 22.59375 13.195312 22.53125 13.203125 C 22.527344 13.207031 22.519531 13.207031 22.511719 13.207031 C 22.457031 13.214844 22.402344 13.21875 22.34375 13.226562 C 22.335938 13.226562 22.328125 13.226562 22.320312 13.226562 C 22.261719 13.234375 22.203125 13.238281 22.144531 13.238281 C 22.132812 13.238281 22.117188 13.242188 22.105469 13.242188 C 22.046875 13.242188 21.984375 13.246094 21.925781 13.246094 C 21.738281 13.246094 21.558594 13.234375 21.375 13.210938 C 20.945312 13.160156 20.53125 13.050781 20.140625 12.886719 C 18.664062 12.269531 17.53125 10.910156 17.152344 9.242188 C 17.0625 8.847656 17.015625 8.4375 17.015625 8.015625 C 17.015625 5.128906 19.21875 2.785156 21.925781 2.785156 C 24.632812 2.785156 26.832031 5.128906 26.832031 8.015625 C 26.832031 10.320312 25.425781 12.28125 23.476562 12.976562 Z M 20.757812 18.378906 C 20.71875 18.714844 20.433594 18.984375 20.117188 18.984375 C 19.804688 18.984375 19.578125 18.714844 19.609375 18.378906 L 20.011719 14.210938 C 20.402344 14.347656 20.804688 14.441406 21.222656 14.492188 Z M 17.171875 18.378906 C 17.15625 18.714844 16.890625 18.984375 16.578125 18.984375 C 16.265625 18.984375 16.015625 18.714844 16.027344 18.378906 L 16.183594 11.835938 C 16.191406 11.535156 16.339844 11.269531 16.554688 11.136719 C 16.800781 11.617188 17.105469 12.0625 17.453125 12.460938 Z M 13.140625 18.984375 C 12.828125 18.984375 12.5625 18.714844 12.546875 18.378906 L 12.246094 11.835938 C 12.226562 11.402344 12.507812 11.042969 12.871094 11.042969 C 13.234375 11.042969 13.535156 11.402344 13.546875 11.835938 L 13.695312 18.378906 C 13.703125 18.714844 13.457031 18.984375 13.140625 18.984375 Z M 9.53125 18.984375 C 9.21875 18.984375 8.929688 18.714844 8.890625 18.378906 L 8.109375 11.835938 C 8.054688 11.402344 8.308594 11.042969 8.671875 11.042969 C 9.035156 11.042969 9.363281 11.402344 9.40625 11.835938 L 10.039062 18.378906 C 10.070312 18.714844 9.84375 18.984375 9.53125 18.984375 Z M 9.886719 24.984375 C 10.246094 24.984375 10.539062 25.296875 10.539062 25.679688 C 10.539062 26.0625 10.246094 26.371094 9.886719 26.371094 C 9.527344 26.371094 9.238281 26.0625 9.238281 25.679688 C 9.238281 25.296875 9.527344 24.984375 9.886719 24.984375 Z M 20.929688 24.984375 C 21.289062 24.984375 21.582031 25.296875 21.582031 25.679688 C 21.582031 26.0625 21.289062 26.371094 20.929688 26.371094 C 20.570312 26.371094 20.28125 26.0625 20.28125 25.679688 C 20.28125 25.296875 20.570312 24.984375 20.929688 24.984375 Z M 21.925781 1.492188 C 18.550781 1.492188 15.804688 4.417969 15.804688 8.015625 C 15.804688 8.433594 15.84375 8.84375 15.914062 9.242188 L 5.394531 9.242188 L 5.011719 7.46875 L 2.863281 5.761719 C 2.839844 5.089844 2.324219 4.550781 1.683594 4.550781 C 1.035156 4.550781 0.503906 5.117188 0.503906 5.808594 C 0.503906 6.503906 1.035156 7.066406 1.683594 7.066406 C 1.925781 7.066406 2.152344 6.992188 2.335938 6.859375 L 3.996094 8.175781 L 6.8125 21.164062 C 6.828125 21.335938 6.808594 21.492188 6.757812 21.625 C 6.707031 21.757812 6.648438 21.8125 6.535156 21.917969 C 6.390625 22.046875 6.195312 22.222656 6.050781 22.546875 C 5.753906 23.199219 5.828125 24.050781 6.242188 24.710938 C 6.363281 24.90625 6.511719 25.078125 6.683594 25.222656 C 6.824219 25.367188 6.964844 25.480469 7.085938 25.5625 C 7.140625 25.601562 7.199219 25.625 7.265625 25.632812 L 7.265625 25.660156 L 8.132812 25.660156 C 8.132812 25.683594 8.132812 25.703125 8.132812 25.726562 C 8.132812 26.773438 8.929688 27.621094 9.914062 27.621094 C 10.898438 27.621094 11.695312 26.773438 11.695312 25.726562 C 11.695312 25.703125 11.691406 25.683594 11.691406 25.660156 L 19.140625 25.660156 C 19.140625 25.683594 19.136719 25.703125 19.136719 25.726562 C 19.136719 26.773438 19.933594 27.621094 20.917969 27.621094 C 21.902344 27.621094 22.699219 26.773438 22.699219 25.726562 C 22.699219 25.703125 22.699219 25.683594 22.699219 25.660156 L 23.195312 25.660156 C 23.5 25.660156 23.742188 25.398438 23.742188 25.078125 L 23.742188 25.03125 C 23.742188 24.707031 23.5 24.445312 23.195312 24.445312 L 22.234375 24.445312 C 21.910156 24.066406 21.441406 23.828125 20.917969 23.828125 C 20.398438 23.828125 19.929688 24.066406 19.601562 24.445312 L 11.226562 24.445312 C 10.902344 24.066406 10.433594 23.828125 9.914062 23.828125 C 9.402344 23.828125 8.941406 24.058594 8.617188 24.421875 L 7.617188 24.421875 C 7.492188 24.359375 7.316406 24.242188 7.191406 24.039062 C 7.003906 23.742188 6.957031 23.339844 7.074219 23.078125 C 7.117188 22.984375 7.164062 22.941406 7.277344 22.839844 C 7.4375 22.691406 7.660156 22.488281 7.8125 22.082031 C 7.941406 21.75 7.984375 21.378906 7.941406 20.988281 L 7.9375 20.964844 C 7.980469 20.957031 8.019531 20.945312 8.058594 20.925781 L 21.78125 20.925781 C 22.160156 20.925781 22.480469 20.628906 22.53125 20.230469 L 23.296875 14.371094 C 26.011719 13.707031 28.046875 11.109375 28.046875 8.015625 C 28.046875 4.417969 25.300781 1.492188 21.925781 1.492188 " fill-opacity="1" fill-rule="nonzero"/></g><path fill="#456896" d="M 19.441406 7.402344 C 19.117188 7.058594 18.59375 7.058594 18.269531 7.402344 C 17.945312 7.746094 17.945312 8.308594 18.269531 8.652344 L 20.511719 11.042969 C 20.667969 11.207031 20.878906 11.300781 21.097656 11.300781 C 21.320312 11.300781 21.527344 11.207031 21.683594 11.042969 L 25.328125 7.160156 C 25.484375 6.992188 25.570312 6.769531 25.570312 6.535156 C 25.570312 6.296875 25.484375 6.074219 25.328125 5.910156 C 25.171875 5.742188 24.964844 5.648438 24.742188 5.648438 C 24.519531 5.648438 24.3125 5.742188 24.15625 5.910156 L 21.097656 9.167969 L 19.441406 7.402344 " fill-opacity="1" fill-rule="nonzero"/></svg>